<?xml version="1.0" encoding="iso-8859-1"?>
<!-- Generator: Adobe Illustrator 19.0.0, SVG Export Plug-In . SVG Version: 6.00 Build 0)  -->
<svg version="1.1" id="Layer_1" xmlns="http://www.w3.org/2000/svg" xmlns:xlink="http://www.w3.org/1999/xlink" x="0px" y="0px"
	 viewBox="0 0 368.823 368.823" style="enable-background:new 0 0 368.823 368.823;" xml:space="preserve">
<g>
	<rect x="200.27" y="128.69" style="fill:#333E48;" width="40.419" height="69.234"/>
	<path style="fill:#333E48;" d="M196.547,144.209c-8.756,0-15.855-7.098-15.855-15.855c0-8.757,7.099-15.855,15.855-15.855h47.863
		c8.757,0,15.855,7.098,15.855,15.855s-7.098,15.855-15.855,15.855H196.547z"/>
	<g>
		<path style="fill:#3E4A57;" d="M125.636,107.212c0,15.167,12.409,27.577,27.577,27.577h134.533
			c15.168,0,27.577-12.409,27.577-27.577V27.577C315.323,12.41,302.913,0,287.746,0H153.213c-15.167,0-27.577,12.41-27.577,27.577
			V107.212z"/>
		<path style="fill:#4C5B6B;" d="M109.702,107.212c0,15.167,12.41,27.577,27.577,27.577h134.534
			c15.167,0,27.577-12.409,27.577-27.577V27.577C299.389,12.41,286.979,0,271.812,0H137.279c-15.167,0-27.577,12.41-27.577,27.577
			C109.702,27.577,109.702,107.212,109.702,107.212z"/>
	</g>
	<g>
		<path style="fill:#333E48;" d="M78.79,245.489c-8.757,0-15.855-7.098-15.855-15.854c0-8.757,7.098-15.855,15.855-15.855h186.281
			c8.757,0,15.856,7.098,15.856,15.855c0,8.757-7.099,15.854-15.856,15.854H78.79z"/>
		<path style="fill:#4C5B6B;" d="M69.355,229.634c-8.756,0-15.855-7.098-15.855-15.855c0-8.757,7.099-15.855,15.855-15.855h150.141
			c8.757,0,15.855,7.098,15.855,15.855c0,8.757-7.098,15.855-15.855,15.855H69.355z"/>
		<path style="fill:#3E4A57;" d="M214.899,229.634c-8.757,0-15.854-7.098-15.854-15.855c0-8.757,7.098-15.855,15.854-15.855h59.443
			c8.757,0,15.855,7.098,15.855,15.855c0,8.757-7.099,15.855-15.855,15.855H214.899z"/>
	</g>
	<rect x="170.631" y="245.489" style="fill:#333E48;" width="25.738" height="79.21"/>
	<path style="fill:#333E48;" d="M207.197,271.412c1.393-2.856,4.316-4.829,7.707-4.829h21.138c4.738,0,8.579,3.841,8.579,8.579
		s-3.841,8.579-8.579,8.579h-21.138c-3.392,0-6.314-1.973-7.707-4.829h-16.036v-7.5H207.197z"/>
	<path style="fill:#333E48;" d="M114.03,344.922c0-11.169,9.054-20.223,20.223-20.223h101.093c11.169,0,20.223,9.054,20.223,20.223
		H114.03z"/>
	<g>
		<circle style="fill:#4C5B6B;" cx="255.57" cy="352.583" r="16.24"/>
		<circle style="fill:#333E48;" cx="255.57" cy="352.583" r="7.661"/>
	</g>
	<g>
		<circle style="fill:#4C5B6B;" cx="114.03" cy="352.583" r="16.24"/>
		<circle style="fill:#333E48;" cx="114.03" cy="352.583" r="7.661"/>
	</g>
	<g>
		<path style="fill:#4C5B6B;" d="M187.737,365.146c0,2.022,1.654,3.677,3.677,3.677h1.279c2.022,0,3.677-1.654,3.677-3.677V340.02
			c0-2.022-1.654-3.677-3.677-3.677h-1.279c-2.023,0-3.677,1.654-3.677,3.677V365.146z"/>
		<path style="fill:#4C5B6B;" d="M181.863,365.146c0,2.022-1.654,3.677-3.677,3.677h-1.279c-2.022,0-3.677-1.654-3.677-3.677V340.02
			c0-2.022,1.654-3.677,3.677-3.677h1.279c2.022,0,3.677,1.654,3.677,3.677V365.146z"/>
		<rect x="181.863" y="344.922" style="fill:#333E48;" width="5.873" height="15.321"/>
	</g>
</g>
<g>
</g>
<g>
</g>
<g>
</g>
<g>
</g>
<g>
</g>
<g>
</g>
<g>
</g>
<g>
</g>
<g>
</g>
<g>
</g>
<g>
</g>
<g>
</g>
<g>
</g>
<g>
</g>
<g>
</g>
</svg>
