<?xml version="1.0" encoding="iso-8859-1"?>
<!-- Generator: Adobe Illustrator 19.0.0, SVG Export Plug-In . SVG Version: 6.00 Build 0)  -->
<svg xmlns="http://www.w3.org/2000/svg" xmlns:xlink="http://www.w3.org/1999/xlink" version="1.1" id="Layer_1" x="0px" y="0px" viewBox="0 0 414.24 414.24" style="enable-background:new 0 0 414.24 414.24;" xml:space="preserve" width="512" height="512">
<g>
	<g>
		<path style="fill:#E6E6E6;" d="M271.63,144.99c-8.71,0-15.77,7.06-15.77,15.77c0-8.71-7.06-15.77-15.78-15.77h-58.22v22.67h74h74    v-22.67H271.63z"/>
		<rect x="174.728" y="164.66" style="fill:#F24125;" width="162.263" height="9.229"/>
	</g>
	<polygon style="fill:#808080;" points="99.793,159.209 91.313,167.699 15.063,91.449 23.543,82.959  "/>
	
		<rect x="40.944" y="8.886" transform="matrix(0.7071 0.7071 -0.7071 0.7071 50.1528 -18.1168)" style="fill:#808080;" width="11.999" height="85.182"/>
	<path style="fill:#808080;" d="M96.858,47.154c-1.535,0-3.071-0.586-4.242-1.757L63.291,16.073c-2.344-2.343-2.344-6.142,0-8.485   c2.342-2.343,6.143-2.343,8.484,0L101.1,36.912c2.344,2.343,2.344,6.142,0,8.485C99.929,46.569,98.393,47.154,96.858,47.154z"/>
	<path style="fill:#F7B239;" d="M135.56,64.59c0,8.43-6.83,15.26-15.27,15.26c-5.05,0-9.53-2.46-12.31-6.26l21.32-21.32   C133.1,55.04,135.56,59.53,135.56,64.59z"/>
	<path style="fill:#41AA77;" d="M155.903,31.679l-58.64,58.63l-9.88,9.88c-18.92-18.92-18.92-49.59,0-68.51   c11.7-11.7,27.88-16.17,43.01-13.4C139.743,19.979,148.683,24.449,155.903,31.679z"/>
	<path style="fill:#4CC18E;" d="M155.903,31.679l-58.64,58.63c-10.82-18.55-8.28-42.73,7.62-58.63c7.22-7.23,16.16-11.7,25.51-13.4   C139.743,19.979,148.683,24.449,155.903,31.679z"/>
	<path style="fill:#4CC18E;" d="M123.86,162.516v10.644H49.97v-10.644c0-5.084,4.122-9.206,9.206-9.206h55.478   C119.738,153.31,123.86,157.432,123.86,162.516z"/>
	<path style="fill:#41AA77;" d="M74.676,153.31h-15.5c-5.084,0-9.206,4.122-9.206,9.206v10.644h15.5v-10.644   C65.47,157.432,69.592,153.31,74.676,153.31z"/>
	<path style="fill:#666666;" d="M35.923,95.339c-1.54,3.86-4.62,6.94-8.49,8.48l-12.37-12.37l8.48-8.49L35.923,95.339z"/>
	<path style="fill:#4CC18E;" d="M15.26,67.9c8.43,0,15.26,6.83,15.26,15.26s-6.83,15.26-15.26,15.26C6.84,98.42,0,91.59,0,83.16   S6.84,67.9,15.26,67.9z"/>
	<polyline style="fill:#F7B239;" points="352.82,205.66 352.82,267.149 169.76,267.149 169.76,205.66 352.82,205.66  "/>
	<polygon style="fill:#F7B239;" points="329.86,171.16 255.86,171.16 181.86,171.16 123.86,171.16 49.97,171.16 3.78,171.16    3.78,205.66 31.76,205.66 31.76,340.83 31.76,392.83 31.76,408.41 169.76,408.41 169.76,392.83 169.76,340.83 169.76,273.239    169.763,273.239 169.763,205.66 352.82,205.66 352.823,205.66 352.823,408.409 381.243,408.409 381.243,205.66 414.24,205.66    414.24,171.16  "/>
	<path style="fill:#E6E6E6;" d="M126.259,390.118h-51c-8.547,0-15.5-6.953-15.5-15.5s6.953-15.5,15.5-15.5h4.5c3.313,0,6,2.686,6,6   s-2.687,6-6,6h-4.5c-1.93,0-3.5,1.57-3.5,3.5s1.57,3.5,3.5,3.5h51c1.93,0,3.5-1.57,3.5-3.5s-1.57-3.5-3.5-3.5h-4.5   c-3.313,0-6-2.686-6-6s2.687-6,6-6h4.5c8.547,0,15.5,6.953,15.5,15.5S134.806,390.118,126.259,390.118z"/>
	<path style="fill:#E6E6E6;" d="M126.259,322.533h-51c-8.547,0-15.5-6.953-15.5-15.5s6.953-15.5,15.5-15.5h4.5c3.313,0,6,2.686,6,6   s-2.687,6-6,6h-4.5c-1.93,0-3.5,1.57-3.5,3.5s1.57,3.5,3.5,3.5h51c1.93,0,3.5-1.57,3.5-3.5s-1.57-3.5-3.5-3.5h-4.5   c-3.313,0-6-2.686-6-6s2.687-6,6-6h4.5c8.547,0,15.5,6.953,15.5,15.5S134.806,322.533,126.259,322.533z"/>
	<path style="fill:#333333;" d="M79.759,223.948h-4.5c-4.447,0-8.462,1.882-11.291,4.891h21.688   C85.136,226.056,82.693,223.948,79.759,223.948 M126.259,223.948h-4.5c-2.935,0-5.378,2.107-5.898,4.891h21.689   C134.721,225.83,130.706,223.948,126.259,223.948"/>
	<polygon style="fill:#E5A030;" points="381.243,205.659 381.243,236.439 352.823,236.439 352.823,274.149 169.763,274.149    169.763,236.439 31.763,236.439 31.763,205.659  "/>
	<path style="fill:#E6E6E6;" d="M126.259,254.949h-51c-8.547,0-15.5-6.954-15.5-15.5c0-8.547,6.953-15.5,15.5-15.5h4.5   c3.313,0,6,2.686,6,6c0,3.313-2.687,6-6,6h-4.5c-1.93,0-3.5,1.57-3.5,3.5c0,1.93,1.57,3.5,3.5,3.5h51c1.93,0,3.5-1.57,3.5-3.5   c0-1.93-1.57-3.5-3.5-3.5h-4.5c-3.314,0-6-2.686-6-6c0-3.314,2.687-6,6-6h4.5c8.547,0,15.5,6.954,15.5,15.5   C141.759,247.995,134.806,254.949,126.259,254.949"/>
</g>















</svg>
